<svg version="1.1" xmlns="http://www.w3.org/2000/svg" viewBox="0 0 1843.052293565538 1374.9447774578298" width="1843.052293565538" height="1374.9447774578298">
  <!-- svg-source:excalidraw -->
  
  <defs>
    <style class="style-fonts">
      @font-face {
        font-family: "Virgil";
        src: url("https://excalidraw.com/Virgil.woff2");
      }
      @font-face {
        font-family: "Cascadia";
        src: url("https://excalidraw.com/Cascadia.woff2");
      }
    </style>
    
  </defs>
  <rect x="0" y="0" width="1843.052293565538" height="1374.9447774578298" fill="#ffffff"></rect><g stroke-linecap="round" transform="translate(10 207.1111111111112) rotate(0 366.5 275.5)"><path d="M0.28 -0.5 C205.64 -1.58, 410.34 -1.36, 733.77 -0.57 M-0.03 0.31 C255.5 3.18, 511.76 3.18, 732.79 0.2 M733.1 -0.76 C734.46 117.35, 734.27 234.66, 733.75 551.33 M732.99 0.22 C734.67 120.08, 734.95 239.77, 733.09 550.97 M732.63 551.54 C554.64 551.99, 376.93 551.03, -0.63 550.93 M732.91 550.63 C530.45 551.17, 327.72 551.29, -0.2 550.81 M-0.61 550.62 C-1.05 351.03, -0.61 151.56, -0.36 -0.49 M0.15 550.69 C-0.85 351.33, -0.68 152.05, 0.22 0.15" stroke="#1e1e1e" stroke-width="1" fill="none"></path></g><g stroke-linecap="round" transform="translate(13.333333333333371 777.1111111111112) rotate(0 366.5 275.5)"><path d="M0.64 0.42 C273.36 -1.49, 548.24 -0.4, 733.02 0.74 M0.18 0 C257.71 -1.66, 515.22 -1.64, 733.17 -0.02 M732.23 -0.8 C732.93 151.56, 733.88 304.76, 732.43 551.33 M732.69 0.11 C733.04 200.75, 733.07 402, 732.73 551.16 M733.67 550.33 C577.9 553.91, 422.23 554.13, -0.22 550.39 M733.15 550.72 C503.49 552.67, 274.62 553.02, -0.35 550.75 M-0.35 551.7 C-0.59 403.43, -1.13 255.06, -0.6 -0.29 M-0.29 551.23 C-0.05 350.8, 0.39 150.88, 0.15 0.02" stroke="#1e1e1e" stroke-width="1" fill="none"></path></g><g stroke-linecap="round" transform="translate(774 210.1111111111112) rotate(0 366.5 275.5)"><path d="M0.06 -0.52 C249.5 -1.75, 499.56 -1.32, 732.29 -0.66 M-0.28 -0.31 C191.86 -1.31, 383.48 -1.55, 732.89 -0.19 M732.72 -0.21 C733.04 119.73, 733.66 239.51, 732.24 551.19 M732.91 0.14 C734.38 191.16, 734.6 382.23, 733.08 550.67 M732.97 550.47 C466.22 553.74, 200.26 554.11, 0.18 551.02 M733 551 C538.1 552.21, 343.65 552.22, -0.34 550.87 M-0.47 551.35 C-1.38 441.03, -2.28 330.56, -0.06 -0.06 M-0.13 550.76 C-2.3 402.97, -2.09 255.36, 0.04 0.1" stroke="#1e1e1e" stroke-width="1" fill="none"></path></g><g stroke-linecap="round" transform="translate(31 220.1111111111112) rotate(0 345.5 50)"><path d="M-0.24 -0.75 C151.86 1.78, 305.23 2.37, 691.1 0.01 M0.39 -0.19 C146.32 -0.9, 292.36 -1, 690.68 0.1 M689.57 1.77 C692.02 24.51, 691.39 45.24, 689.26 98.28 M691.08 -0.05 C690.46 36.43, 691.33 72.81, 691.11 99.6 M691.46 100.05 C493.98 99.76, 298.69 98.61, -0.6 99.48 M691.39 99.67 C420.76 99.74, 150.51 99.64, 0.01 100.37 M-1.82 100.67 C-1.07 76.28, -1.26 53.68, 0.56 1.83 M-0.19 99.77 C0.24 71.11, -1.35 44.41, 0.35 0.98" stroke="#3bc9db" stroke-width="1" fill="none"></path></g><g stroke-linecap="round" transform="translate(17.666666666666856 733.4444444444446) rotate(0 358.27777777777766 11.666666666666686)"><path d="M0.67 0.59 C186.19 -0.15, 373.08 -0.57, 716.28 0.53 M-0.05 0.31 C204.4 -1.26, 408.24 -1.02, 716.57 0.07 M716.32 1.92 C716.74 5.85, 715.25 11.15, 716.49 21.46 M716.83 -0.42 C717.57 7.94, 715.74 16.57, 716.91 23.95 M716.95 22.89 C555.56 25.29, 394.63 26.75, -0.53 23.38 M716.87 23.68 C460.41 20.78, 203.99 20.74, 0.08 23.39 M-1.53 22.42 C0.97 13.59, -0.85 7.23, 0.2 -0.72 M-0.21 24.14 C0.57 13.83, -0.64 4.24, 0.36 -0.18" stroke="#3bc9db" stroke-width="1" fill="none"></path></g><g stroke-linecap="round" transform="translate(18.777777777777942 1300.1111111111113) rotate(0 358.27777777777766 11.666666666666742)"><path d="M-0.6 0.45 C150.64 -2.8, 302.97 -2.41, 717.3 -0.25 M0.3 0.27 C209.08 1.09, 418.52 1.2, 716.61 -0.16 M718.47 -1.24 C716.85 6.5, 715.46 10.58, 715.21 23.77 M717.14 0.57 C716.06 5.17, 717.58 10.91, 717.41 23.15 M716.56 23.79 C447.5 21.96, 177.8 22.05, -0.13 22.89 M716.57 23.5 C462.55 23.14, 208.99 23, 0.29 23.4 M-1.6 23.34 C1.77 15.84, 1.45 8.57, -1.57 -0.43 M-0.86 24.28 C0.23 18.25, 0.01 13.53, 0.08 0.37" stroke="#3bc9db" stroke-width="1" fill="none"></path></g><g stroke-linecap="round" transform="translate(779.8888888888888 731.2222222222224) rotate(0 357.72222222222234 11.666666666666686)"><path d="M0.27 -0.36 C230.13 -3.12, 461.09 -2.42, 715.28 -0.28 M-0.02 0.37 C209.02 -1.13, 418.21 -0.77, 715.58 0.35 M715.27 -1.09 C715.79 5.19, 714.76 14.95, 715.48 23.26 M715.84 0.17 C715.17 7.62, 715.67 14.45, 714.86 22.87 M716.07 23.49 C571.59 22.71, 429.81 21.86, -0.5 22.84 M715.24 23.11 C467.68 23.25, 220.02 23.25, 0.24 23.12 M0.6 23.5 C-1.31 15.13, -0.52 5.89, -1.68 1.47 M-0.35 23.36 C-0.41 16.63, 0.8 11.53, 0.68 0.95" stroke="#3bc9db" stroke-width="1" fill="none"></path></g><g stroke-linecap="round" transform="translate(31 794.5555555555557) rotate(0 345.5 50)"><path d="M-0.69 -0.51 C179.71 -0.94, 359.47 -1.64, 691.7 0.37 M-0.3 -0.14 C261.27 -1.54, 522.03 -1.81, 691.23 -0.15 M691.76 0.12 C691.44 21.29, 692.42 42.2, 691.62 100.99 M691.07 0.89 C690.83 30.2, 689.74 58.08, 691.72 100.04 M690.36 100.41 C457.61 98.3, 224.94 98.65, -0.04 99.81 M691.1 100.11 C519.39 102.48, 347.2 102.35, -0.02 100.01 M-1.5 98.27 C1.47 75.66, 1.07 48.76, -0.98 -0.18 M0.14 99.02 C1.12 71.45, -0.1 40.98, -0.36 0.81" stroke="#3bc9db" stroke-width="1" fill="none"></path></g><g stroke-linecap="round" transform="translate(793 220.1111111111112) rotate(0 345.5 50)"><path d="M0.26 -0.29 C140.12 1.16, 279.39 1.64, 691.39 0.64 M0.33 -0.26 C246.81 2.22, 494.03 2.33, 690.97 0.19 M692.14 -0.88 C690.13 34.85, 690.21 66.84, 690.24 100.82 M691.27 0.83 C692.11 31.98, 690.49 62.28, 691.77 99 M691.8 99.33 C530.63 97.66, 370.66 97.92, -0.77 100.66 M691.15 100.4 C515.54 98.94, 339.83 98.5, -0.05 100.09 M1.86 101.85 C1.54 68.39, 0.11 33.81, -1.51 -0.35 M-0.96 99.57 C-0.93 64.01, -0.46 29.64, 0.21 0.08" stroke="#3bc9db" stroke-width="1" fill="none"></path></g><g transform="translate(75.66666666666663 232.77777777777783) rotate(0 300.5790710449219 20.500000000000014)"><text x="0" y="0" font-family="Virgil, Segoe UI Emoji" font-size="32.80000000000002px" fill="#1e1e1e" text-anchor="start" style="white-space: pre;" direction="ltr" dominant-baseline="text-before-edge">&lt;h1&gt; Do You Like Scary Movies? &lt;/h1&gt;</text></g><g transform="translate(71.22222222222229 825.0000000000001) rotate(0 300.5790710449219 20.5)"><text x="0" y="0" font-family="Virgil, Segoe UI Emoji" font-size="32.80000000000002px" fill="#1e1e1e" text-anchor="start" style="white-space: pre;" direction="ltr" dominant-baseline="text-before-edge">&lt;h1&gt; Do You Like Scary Movies? &lt;/h1&gt;</text></g><g transform="translate(842 244.1111111111112) rotate(0 300.5790710449219 20.500000000000014)"><text x="0" y="0" font-family="Virgil, Segoe UI Emoji" font-size="32.80000000000002px" fill="#1e1e1e" text-anchor="start" style="white-space: pre;" direction="ltr" dominant-baseline="text-before-edge">&lt;h1&gt; Do You Like Scary Movies? &lt;/h1&gt;</text></g><g stroke-linecap="round" transform="translate(156 351.1111111111112) rotate(0 198 93)"><path d="M-0.58 -0.97 C94.18 -1.45, 190.07 -0.52, 396.48 -0.95 M-0.55 0.22 C95.99 0.41, 191.92 0.11, 395.69 0.51 M395.26 -0.12 C397.15 49.77, 393.69 105.08, 395.71 186.99 M396.52 -0.13 C397.28 40.68, 396.04 83.13, 396.91 185.56 M396.81 185.53 C270.45 185.47, 145.45 183.84, 1.08 186.8 M395.74 185.64 C292.1 186.86, 188.74 186.53, 0.56 186.3 M0.77 186.75 C0.85 130.11, 0.99 74.08, 0.18 -1.49 M0.62 185.1 C0.74 115.28, 0.93 44.69, 0.13 -0.17" stroke="#343a40" stroke-width="1" fill="none"></path></g><g transform="translate(210 172.1111111111112) rotate(0 104.17990112304688 12.5)"><text x="0" y="0" font-family="Virgil, Segoe UI Emoji" font-size="20px" fill="#343a40" text-anchor="start" style="white-space: pre;" direction="ltr" dominant-baseline="text-before-edge">Homepage [Computer]</text></g><g transform="translate(163 361.1111111111112) rotate(0 186.00125122070312 10.562764754769148)"><text x="0" y="0" font-family="Virgil, Segoe UI Emoji" font-size="16.900423607630653px" fill="#343a40" text-anchor="start" style="white-space: pre;" direction="ltr" dominant-baseline="text-before-edge">&lt;h3&gt; Test Your Scary Movie Knowledge&lt;/h3&gt;</text></g><g transform="translate(196 400.1111111111112) rotate(0 159.25885009765625 60.251840627111875)"><text x="0" y="0" font-family="Virgil, Segoe UI Emoji" font-size="16.067157500563166px" fill="#343a40" text-anchor="start" style="white-space: pre;" direction="ltr" dominant-baseline="text-before-edge">&lt;p&gt;Answer 10 questions within the 30</text><text x="0" y="20.08394687570396" font-family="Virgil, Segoe UI Emoji" font-size="16.067157500563166px" fill="#343a40" text-anchor="start" style="white-space: pre;" direction="ltr" dominant-baseline="text-before-edge">second time limit. For every wrong </text><text x="0" y="40.16789375140792" font-family="Virgil, Segoe UI Emoji" font-size="16.067157500563166px" fill="#343a40" text-anchor="start" style="white-space: pre;" direction="ltr" dominant-baseline="text-before-edge">answer, 5 seconds will be deducted from</text><text x="0" y="60.251840627111875" font-family="Virgil, Segoe UI Emoji" font-size="16.067157500563166px" fill="#343a40" text-anchor="start" style="white-space: pre;" direction="ltr" dominant-baseline="text-before-edge">your total time. For every correct</text><text x="0" y="80.33578750281583" font-family="Virgil, Segoe UI Emoji" font-size="16.067157500563166px" fill="#343a40" text-anchor="start" style="white-space: pre;" direction="ltr" dominant-baseline="text-before-edge">answer, 5 seconds will be added to your</text><text x="0" y="100.41973437851979" font-family="Virgil, Segoe UI Emoji" font-size="16.067157500563166px" fill="#343a40" text-anchor="start" style="white-space: pre;" direction="ltr" dominant-baseline="text-before-edge">total time. &lt;/p&gt;</text></g><g stroke-linecap="round" transform="translate(187 548.1111111111112) rotate(0 167 19.5)"><path d="M1.29 1.32 C98.82 -0.68, 195.73 -0.53, 333.44 1.04 M0.41 -0.44 C97.12 -1.16, 193.63 -1.68, 333.77 -0.38 M334.2 0.22 C336.03 12.86, 335.33 25.77, 334.42 38.38 M334.33 0.19 C334.22 13.93, 334.09 29.06, 334.58 38.53 M333.2 38.03 C237.72 37.88, 140.69 38.15, 0.65 39.23 M334.65 38.67 C256.03 36.24, 177.49 36.81, -0.17 39.35 M-0.47 39.72 C1.05 23.51, 1.19 10.14, 1.78 1.52 M-0.61 39.91 C1.25 25.14, -0.55 12.06, 0.49 -0.43" stroke="#e03131" stroke-width="1" fill="none"></path></g><g transform="translate(217 559.1111111111112) rotate(0 133.1011962890625 10.392862001438147)"><text x="0" y="0" font-family="Virgil, Segoe UI Emoji" font-size="16.628579202301026px" fill="#e03131" text-anchor="start" style="white-space: pre;" direction="ltr" dominant-baseline="text-before-edge">&lt;h4&gt; Answer the Questions&lt;/h4&gt;</text></g><g transform="translate(997 176.1111111111112) rotate(0 108.64990234375 12.5)"><text x="0" y="0" font-family="Virgil, Segoe UI Emoji" font-size="20px" fill="#1e1e1e" text-anchor="start" style="white-space: pre;" direction="ltr" dominant-baseline="text-before-edge">Quiz Page [Computer]</text></g><g stroke-linecap="round" transform="translate(918 385.1111111111112) rotate(0 217.5 64.5)"><path d="M0.45 0.91 C97.6 2.03, 193.41 1.67, 435.18 -0.81 M0.24 -0.49 C132.75 0.02, 266.09 0.11, 435.24 0.16 M436.52 -1.05 C435.25 32.83, 437.72 66.88, 435.37 128.53 M435.36 0.54 C433.61 28.08, 434.23 55.77, 434.29 128.97 M434.78 129.73 C320.46 128.82, 203.27 127.61, -0.66 129.8 M435.47 128.91 C326.83 129.21, 218.69 128.4, 0.26 128.74 M1.42 129.06 C-0.95 96.51, 0.26 65.86, -0.87 1.52 M0.97 129 C-1.05 89.65, -1.23 52.49, 0.75 0.59" stroke="#1e1e1e" stroke-width="1" fill="none"></path></g><g stroke-linecap="round" transform="translate(1007 328.1111111111112) rotate(0 112 23.5)"><path d="M-0.32 -0.28 C73.67 1.3, 145.88 2.06, 223.66 -1.71 M0.62 -0.34 C78.69 0.87, 156.88 1.61, 223.81 0.48 M222.95 0.36 C224.38 9.61, 223.24 18.11, 225.38 48.53 M223.05 0.32 C224.77 10.08, 223.47 20.97, 223.2 47.03 M224.15 47.64 C141.83 46.85, 55.9 46.66, 0.38 47.57 M223.86 47.24 C150.84 46.01, 75.57 46.42, -0.05 47.45 M1.44 47.95 C1.33 35.66, -1.08 26.33, 0.3 0.8 M0.77 46.41 C-0.79 35.61, -0.21 26.21, 0.02 0.55" stroke="#868e96" stroke-width="1" fill="none"></path></g><g transform="translate(1089 340.1111111111112) rotate(0 29.86998748779297 12.5)"><text x="0" y="0" font-family="Virgil, Segoe UI Emoji" font-size="20px" fill="#868e96" text-anchor="start" style="white-space: pre;" direction="ltr" dominant-baseline="text-before-edge">00:30</text></g><g transform="translate(934.2222222222222 447.0000000000001) rotate(0 205.36312866210938 21.68873971420578)"><text x="0" y="0" font-family="Virgil, Segoe UI Emoji" font-size="17.350991771364612px" fill="#1e1e1e" text-anchor="start" style="white-space: pre;" direction="ltr" dominant-baseline="text-before-edge">&lt;h3&gt; `Insert Questions Here: See separate</text><text x="0" y="21.688739714205767" font-family="Virgil, Segoe UI Emoji" font-size="17.350991771364612px" fill="#1e1e1e" text-anchor="start" style="white-space: pre;" direction="ltr" dominant-baseline="text-before-edge">documentation for questions and answers&lt;/h3&gt; </text></g><g stroke-linecap="round" transform="translate(1042 532.1111111111112) rotate(0 106.5 11)"><path d="M1.49 -0.52 C84.28 -0.07, 171.19 0.17, 212.85 -0.89 M-0.79 0.7 C65.29 -0.87, 129.67 -1.53, 213.75 0.59 M211.58 -1.99 C212.19 5.81, 214.35 10.21, 214.61 23.27 M212.3 -0.96 C212.66 4.94, 212.79 11.73, 213.63 22.57 M212.96 22.72 C146.92 24.08, 79.54 24.42, -0.18 21.67 M213.71 21.68 C151.87 22.8, 88.58 23.55, 0.67 21.55 M1.09 20.24 C1.49 15.21, -0.94 7.01, -0.72 0.7 M0.64 22.92 C0.81 15.6, -0.13 7.8, -0.84 -0.36" stroke="#e03131" stroke-width="1" fill="none"></path></g><g stroke-linecap="round" transform="translate(1045 567.1111111111112) rotate(0 106.5 11)"><path d="M1.45 -0.44 C62.94 -1.69, 123.34 -0.65, 212.19 -1.39 M0.3 0.07 C68.23 2.13, 134.14 2.14, 212.52 -0.53 M212.88 -0.21 C212.84 7.87, 212.29 17.2, 211.78 23 M213.28 -0.96 C212.11 8.58, 213.89 17.66, 212.35 22.96 M213.2 20.63 C145.39 20.97, 80.44 21.31, -0.69 21.29 M212.58 22.74 C142.39 21.99, 71.03 22.79, -0.45 22.28 M1.8 20.37 C0.03 15.58, -0.75 13.86, 1.57 -1.29 M-0.24 21.18 C0.71 13.78, 0.11 5.22, 0.78 -0.73" stroke="#e03131" stroke-width="1" fill="none"></path></g><g stroke-linecap="round" transform="translate(1048 601.1111111111112) rotate(0 106.5 12.5)"><path d="M-0.15 -0.78 C63.61 -0.75, 126.12 1.88, 213.32 -0.05 M0.02 0.75 C70.38 1.16, 140.63 1.83, 213.38 -0.07 M212 -0.37 C212.19 7, 212 16.22, 213.58 25.33 M212.64 -0.64 C213.76 5.78, 213.53 11.59, 212.57 24.14 M211.25 24.26 C130.54 26.32, 45.69 26.66, -0.3 26.74 M213.46 25.06 C154.88 26.95, 94.87 25.77, -0.36 24.85 M0.58 24.46 C1.12 18.38, 1.05 9.58, -0.12 1.72 M1 24.88 C-0.11 18.6, -0.93 12.96, -0.93 0.1" stroke="#e03131" stroke-width="1" fill="none"></path></g><g transform="translate(1104 532.1111111111112) rotate(0 33.439979553222656 10)"><text x="0" y="0" font-family="Virgil, Segoe UI Emoji" font-size="16px" fill="#e03131" text-anchor="start" style="white-space: pre;" direction="ltr" dominant-baseline="text-before-edge">Option A</text></g><g transform="translate(1118 605.1111111111112) rotate(0 33.34397888183594 10)"><text x="0" y="0" font-family="Virgil, Segoe UI Emoji" font-size="16px" fill="#e03131" text-anchor="start" style="white-space: pre;" direction="ltr" dominant-baseline="text-before-edge">Option C</text></g><g transform="translate(1108 568.1111111111112) rotate(0 34.00798034667969 10)"><text x="0" y="0" font-family="Virgil, Segoe UI Emoji" font-size="16px" fill="#e03131" text-anchor="start" style="white-space: pre;" direction="ltr" dominant-baseline="text-before-edge">Option B</text></g><g stroke-linecap="round" transform="translate(1096.1111111111113 651.8888888888889) rotate(0 61 11)"><path d="M0 0 C0 0, 0 0, 0 0 M0 0 C0 0, 0 0, 0 0 M-0.37 5.87 C2.05 4.09, 3.08 2.17, 4.76 0.28 M-0.27 6.56 C1.3 4.45, 3.31 2.61, 5.06 0.36 M0.38 13.24 C2.92 9.69, 6.82 5.83, 11.82 0.3 M0.16 12.82 C3.44 8.61, 5.4 4.9, 10.52 -0.53 M0.56 19.37 C1.66 15.39, 5.65 8.54, 16.2 -1.31 M-1.1 19.17 C5.24 13.21, 10.83 5.49, 15.48 1.21 M1.73 24.3 C8.6 14.65, 14.99 8.63, 19.54 -1.47 M0.62 24.06 C6.64 16.56, 12.54 10.74, 20.38 0.25 M5.67 24.88 C15.09 16.32, 21.6 4.77, 26.3 0.29 M6.45 22.64 C13.13 15.67, 20.76 8.58, 25.73 0.17 M12.02 22.87 C17.76 15.67, 26.84 4.76, 33.17 0.29 M10.67 23.36 C16.9 16.02, 24.15 10.43, 31.12 -0.96 M15.35 20.96 C26.39 15.83, 32.41 6.44, 36.03 -0.12 M17.31 23.73 C22.56 17.47, 29.08 11.58, 36.52 -0.7 M23.92 24.37 C29.91 17.76, 36.01 9.49, 41.14 0.52 M21.51 22.89 C30.17 12.94, 38.13 4.97, 43.03 0.69 M26.9 23.89 C33.63 13.97, 43.9 5.57, 47.82 0.79 M28.31 22.51 C32.36 16.82, 36.91 11.84, 48.17 0.25 M32.99 24.98 C39.61 18.15, 43.97 8.77, 51.67 -0.5 M31.89 22.84 C38.58 16.66, 44.56 10.52, 52.65 -0.76 M37.68 22.8 C41.22 15.86, 47.84 12.5, 59.2 0.73 M38.41 23.59 C44.53 14.62, 52.82 7.27, 57.68 1.18 M41.88 23.3 C50.55 13.72, 58.69 7.38, 63.07 0.9 M43.25 23.97 C47.93 17.75, 53.96 12.03, 63.72 0.76 M47.13 22.25 C55.6 15.55, 64.29 6.83, 68.77 1.84 M49.8 23.6 C57.14 13.5, 65.12 4.71, 67.77 -0.16 M54.3 22.34 C58.8 17.17, 63.83 11.51, 73.76 -2.19 M54.74 22.55 C60.7 16.06, 68.08 7.58, 74.17 0.39 M58.78 24.2 C66.74 17.63, 69.47 8.5, 78.24 0.64 M58.85 22.24 C67.36 13.27, 74.76 6.08, 79.85 0.5 M65.11 23.51 C71.97 14.94, 76.2 9.53, 84.24 -1.28 M64.23 23.44 C69.74 16.86, 75.49 9.61, 85.15 -0.7 M70.26 22.01 C77.14 13.75, 86.29 3.79, 90.41 -1.91 M71.14 23.24 C78.56 14.83, 86.45 4.48, 89.05 0.98 M74.22 24.62 C83.86 12.79, 90.07 3.37, 95.11 1.51 M75.26 23.01 C83.33 13.95, 90.99 4.3, 96 -0.3 M79.29 22.44 C86.18 14.9, 91.22 12.12, 99.17 1.53 M80.45 23.38 C88.9 13.73, 95.33 6.61, 101.17 -0.36 M84.66 21.89 C91.07 18.13, 95.81 11.81, 105.05 -0.5 M86.09 22.19 C92.55 15.66, 100.55 7.92, 107.27 -0.13 M89.69 23.69 C97.32 13.96, 106.92 6.09, 111.52 -1.3 M91.78 23.49 C97.38 14.6, 104.96 8.34, 111.76 0.41 M96.53 23.97 C104.15 16.19, 109.22 9.81, 116.2 0.13 M96.69 23.47 C101.75 17.74, 106.04 12.21, 117.06 -0.13 M100.71 22.07 C106 16.06, 112.91 8.1, 121.53 -0.21 M101.65 24.2 C107.51 15.51, 113.18 9.22, 121.04 -0.26 M109.05 21.87 C112.6 16.21, 118.14 9.12, 124.78 2.29 M107.73 23.86 C110.27 17.9, 114.9 14.37, 124.67 1.83 M111.69 23.1 C115.62 15.91, 123.15 13.85, 124.52 8.43 M111.8 23.91 C116.67 17.1, 121.72 11.51, 125.05 8.72 M118.21 23.01 C120.72 19.25, 122.68 16.23, 124.78 14.18 M117.7 23.5 C120.62 20.3, 122.99 16.27, 125.05 14.53" stroke="#d0bfff" stroke-width="0.5" fill="none"></path><path d="M-0.41 0.14 C24.9 0.71, 53.71 0.44, 120.49 -1.98 M-0.33 0.88 C36.53 0.12, 75.66 1.37, 121.88 0.65 M122.05 -1.79 C122.48 9.74, 120.86 15.54, 122.17 20.34 M121.06 -0.08 C122.48 5.91, 122.7 11.66, 122.77 21.84 M122.42 20.85 C83.65 22.06, 46.12 22.85, -1.51 20.48 M122.3 21.33 C89.81 22.52, 59.11 22.66, -0.44 22.41 M1.18 22.29 C-1.89 17.77, -2.04 9.55, -1.66 -0.17 M-0.62 22.27 C-0.69 17.22, 0.59 11.31, 0.56 -0.36" stroke="#be4bdb" stroke-width="1" fill="none"></path></g><g stroke-linecap="round" transform="translate(262.7777777777777 1221.8888888888887) rotate(0 81 13.777777777777942)"><path d="M0 0 C0 0, 0 0, 0 0 M0 0 C0 0, 0 0, 0 0 M-0.3 6.2 C1.07 3.47, 4.34 1.79, 5.3 0.07 M-0.24 6.28 C1.75 4.05, 3.83 1.7, 4.77 0.53 M-1.01 10.62 C3.3 10.34, 6.64 7.16, 11.24 0.88 M-0.36 11.61 C2.98 9.16, 5.62 5.54, 11.16 0.73 M-0.64 18.08 C4.71 14.86, 7.99 7.25, 14.67 0.25 M0.61 17.55 C4.11 14.23, 8.06 9.65, 16.24 -0.56 M0.09 22.86 C4.06 19.72, 8.08 12.73, 20.74 1.8 M0.18 25.02 C9.24 14.11, 17.32 4.87, 20.78 -0.49 M0.56 30.73 C8.79 23.77, 13.33 16.14, 26.19 2.07 M1.12 28 C9.32 18.95, 18.67 8.93, 26.62 0.92 M8 30.37 C16.86 15.98, 26.1 5.86, 31.41 0.88 M6.32 28.43 C13.45 21.77, 18.91 16.17, 32.86 -0.43 M11.08 30 C16.8 23.02, 26.74 13.01, 36.35 -0.52 M11.51 28.69 C17.62 22.97, 23.02 17, 37.74 0.07 M16.73 27.27 C23.88 19.22, 31.74 11.24, 40.87 0.5 M18.02 28.03 C24.42 21.06, 31.47 14.41, 41.83 -0.83 M24.06 29.73 C29.97 22.37, 33.96 14.88, 48.56 1.92 M23.48 28.69 C31.35 20.44, 37.01 10.59, 47.79 0.42 M26.64 28.7 C34.11 18.06, 43.11 10.43, 55.01 0.93 M28.11 28.34 C36.27 19.04, 44.34 9.95, 53.55 -0.43 M34.28 27.29 C39.92 20.58, 48.57 9.89, 59.67 -0.05 M33.43 29.71 C39.93 20.51, 46.52 13.79, 58.04 -0.78 M39.42 30.31 C43.63 21.7, 51.38 14.13, 62.12 -1.49 M38.43 29.03 C47.21 19.67, 55.58 9.35, 64.42 0.24 M42.89 28.18 C49.5 23.1, 55.04 14.33, 69.91 -0.78 M44.33 29.65 C50.78 20.41, 56.91 13.38, 67.78 0.41 M47.55 27.64 C58.88 20.14, 64.7 9.54, 74.87 -0.32 M48.15 29.24 C57.94 19.42, 66.76 8.02, 74.38 -0.14 M55.45 27.94 C58.33 21.72, 67.67 16.25, 80.92 -1.55 M54.69 29.63 C63.17 18.83, 71.39 8.2, 79.35 -0.34 M58.85 31.04 C67.45 19.19, 75.53 10.21, 84.38 -1.04 M59.52 29.56 C67.43 18.65, 76.28 9.28, 85.93 -0.69 M63.93 30.24 C72.12 22.89, 78.53 15.83, 89.77 -0.52 M65.56 28.96 C75.68 17.26, 85.02 7.69, 89.15 -0.69 M70.59 28.21 C76.82 20.8, 86.27 10.79, 94.14 1.01 M70.82 29.52 C74.98 22.06, 81.27 16.4, 95.11 0.66 M76.73 28.84 C80.48 22.42, 86.68 15.43, 98.9 1.24 M75.55 28.16 C84.9 17.88, 91.83 8.92, 100.62 -0.58 M82.11 27.22 C92.19 17.81, 99.79 5.46, 106.07 -1.48 M80.05 29.62 C90.02 18.1, 99.27 8.35, 106.5 0.2 M84.62 29.57 C92.98 18.56, 101.73 8.17, 110.17 1.75 M85.81 27.95 C91.98 21.44, 99.96 13.58, 111.24 0.75 M92.14 27.2 C97.78 20.68, 102.87 15.27, 117.83 -0.92 M91.28 29.06 C98.96 18.83, 107.9 9.86, 115.59 0.17 M98.8 28.39 C101.84 20.11, 108.11 15.73, 122.87 0.11 M97.04 28.25 C103.2 22.42, 109.67 13.97, 121.55 -0.24 M100.83 28.39 C110.81 19.7, 118.08 11.35, 127.44 0.08 M101.58 28.74 C111.61 17.49, 120.43 7.85, 126.37 0.75 M108.86 29.32 C115.46 21.33, 123.01 14.13, 131.66 -1.46 M108.48 29.2 C115.05 20.57, 121.92 11.48, 132.12 -0.39 M111.73 30.13 C120.48 16.04, 132.52 5.28, 139.4 -0.71 M112.11 28.27 C118.73 20.96, 126.08 13.68, 138.41 -0.41 M116.81 30.5 C126.46 19.32, 136.97 6.47, 144.63 0.33 M118.91 28.12 C124.1 23.59, 127.82 16.09, 142.59 -0.81 M121.8 28.83 C130.54 19.99, 138.03 11.77, 149.22 1.8 M123.05 28.95 C129.8 20.02, 137.27 12.32, 148.49 -0.22 M127.06 30.14 C135.88 23.83, 140.59 14.03, 153.26 -0.12 M129.68 28.54 C137.24 18.8, 146.22 7.97, 154.62 0.06 M135.4 28.02 C144.19 19.13, 152.19 10.76, 156.86 -1.2 M134.64 28.78 C141.16 20.19, 149.02 11.29, 158.92 -0.37 M140.42 28.56 C143.73 21.84, 150.2 17.56, 161.15 2.19 M139.68 29.2 C147.02 21.06, 152.35 13.14, 163.63 1 M146.3 28.31 C150.76 23.36, 156.87 16.32, 162.75 8.37 M144.17 29.49 C152.24 19.9, 158.5 13.35, 162.68 6.42 M152.13 30.18 C153.78 22.32, 161.48 18.54, 164.71 14.89 M150.33 29.05 C153.3 24.24, 157.35 19.58, 162.5 13.05 M155.46 29.19 C156.46 26.98, 158.83 25.03, 162.59 19.39 M155.02 29.24 C156.33 26.93, 159.03 24.66, 162.89 19.38 M160.97 28.66 C161.65 27.43, 162.68 26.34, 163.28 25.77 M160.74 28.41 C161.24 27.48, 161.96 27.1, 163.56 25.41" stroke="#d0bfff" stroke-width="0.5" fill="none"></path><path d="M-1.15 0.75 C64.66 -1.02, 129.3 -2.59, 163.91 1.09 M-0.25 0.52 C56.52 0.58, 113.93 1.67, 162.74 0.3 M163.58 0.92 C160.6 7.8, 161.5 20.31, 163.01 27.22 M161.28 0.25 C161.59 9.96, 161.78 20.52, 162.43 27.25 M163.47 29.51 C97.32 28.62, 31.87 26.58, -0.57 28.23 M162.41 26.83 C119.89 26.21, 76.92 25.67, -0.79 27.43 M0.99 27.83 C1.41 15.76, -1.68 8.05, -1.5 -1.42 M0.98 27.28 C-0.66 20.06, 0.44 11.92, -0.26 -0.57" stroke="#9c36b5" stroke-width="1" fill="none"></path></g><g stroke-linecap="round" transform="translate(263.8888888888889 1264.1111111111109) rotate(0 81 13.777777777777942)"><path d="M0 0 C0 0, 0 0, 0 0 M0 0 C0 0, 0 0, 0 0 M0.21 5.84 C1.46 4.26, 2.47 3.01, 5.26 0.12 M-0.01 6.24 C1.74 4.45, 3.54 2.52, 5.12 0.42 M1.69 11.94 C2.89 7.27, 6.61 4.95, 10.91 0.05 M-0.41 11.28 C3.3 9.63, 5.17 6.14, 10.51 -0.75 M-0.59 17.32 C3.45 11.1, 9.03 4.13, 14.47 -0.82 M0.78 19.4 C5.94 11.4, 11.7 3.86, 16.47 0.18 M-0.57 24.22 C3.89 17.09, 8.44 14.65, 22.98 -0.3 M0.51 23.34 C5.27 18.53, 10.56 11.92, 22.02 -0.5 M2.53 29.62 C8.02 22.28, 16.32 12.57, 27.42 1.2 M1.28 29 C8.09 21.18, 12.9 14.8, 26.78 -0.41 M5.23 30.43 C16.57 17.31, 23.33 8.97, 31.11 0.09 M6.42 28.59 C16.4 16.68, 25.55 7.12, 32.46 -0.56 M10.14 28.52 C21.74 19.75, 30.07 10.34, 37.58 -0.36 M12.8 29.08 C17.89 21.36, 23.5 13.97, 36.63 1.08 M18.78 28.51 C27.47 17.24, 32.98 7.29, 42.87 1.85 M17.52 28.64 C26.2 18.14, 34.9 7.28, 41.85 -1.02 M21.44 30.33 C27.79 20.85, 37.14 15.38, 47.39 1.43 M22.74 28.72 C30.67 18.65, 39.77 8.97, 47.46 0.72 M27.49 27.05 C32.44 22.69, 38.7 17.64, 52.17 1.71 M27.87 28.53 C38.21 16.85, 46.05 7.72, 52.76 0.4 M35.2 28.91 C39.72 22.32, 47.16 15.3, 58.73 0.6 M32.27 28.63 C42.91 19.05, 52.17 6.46, 58.75 -0.74 M38.08 29.19 C43.68 23.45, 50.58 14.71, 65.33 -1.51 M39.51 29.44 C49 18.28, 57.25 6.52, 63.33 -0.83 M42.63 28.2 C50.17 24.72, 53.95 17.81, 66.86 0.24 M44.08 28.75 C49.03 21.26, 56.13 14.7, 69.04 -0.82 M50.05 27.92 C55.4 20.92, 65.87 12.65, 75.07 -0.91 M48.9 29.03 C55.11 21.39, 60.1 16.29, 74.25 -1 M53.31 28.23 C60.28 23.08, 66.43 17.39, 78.46 -1.42 M55.4 29.19 C62.91 20.08, 69.98 10.65, 78.91 -0.37 M60.26 29.06 C70.01 16.94, 76.79 7.81, 86.52 0.52 M58.48 29.4 C67.76 19.37, 75.25 11.5, 85.75 -1.22 M65.26 27.12 C68.38 22.47, 76.87 17.16, 89.61 -1.1 M65.04 29.3 C71.31 21.43, 77.99 14.26, 89.99 -0.52 M69.01 29.8 C74.61 23.98, 78.5 17.09, 95.22 -0.13 M69.78 28.6 C78.07 21.42, 83.79 12.7, 96.59 -0.41 M74.88 27.11 C82.63 22.17, 88.94 12.44, 99.81 -0.38 M76.33 28.59 C85.96 18.62, 93.9 7.7, 99.94 0.32 M80.68 29.65 C89.71 22.07, 95.17 14.81, 105.11 0.34 M81.04 28.66 C90.47 17.89, 101 6.61, 107.1 -0.25 M86.99 28.51 C92.92 21.04, 98.22 16.73, 109.94 0.2 M86.16 27.82 C92.34 22.1, 100.22 14.13, 111.5 -0.59 M93.01 29.22 C101.31 18.05, 110.74 6.38, 117.87 1.96 M91.55 29.28 C100.73 19.66, 110.21 7.82, 115.5 0.5 M96.82 27.72 C101.7 22.88, 107.41 16.73, 120.31 -0.77 M97.95 27.91 C107.06 16.93, 116.05 6.45, 121.42 0.73 M103.2 28.23 C109.28 22.87, 115.14 17.63, 125.59 0.61 M102.63 28.87 C107.84 22.19, 114.69 15.24, 127.51 0.05 M107.99 27.25 C115.45 20.07, 121.37 14.33, 132.63 0.4 M106.68 29.02 C113.47 22.09, 119.3 15.04, 133.52 -0.04 M113.83 27.47 C118.03 24.62, 124.08 15.5, 136.75 -1.48 M112.67 29.56 C118.21 21.58, 124.57 16.87, 137.43 1.05 M118.54 29.7 C122.05 21.41, 127 15.58, 144 -1.54 M117.89 29.48 C124.05 22.13, 130.45 15.01, 143.66 -0.5 M122.88 30.83 C127.22 23.61, 134.08 15.64, 148.93 -0.77 M124.08 28.17 C128.05 23.62, 132.78 16.17, 147.78 0.62 M126.91 27.76 C135.81 18.56, 142.72 10.76, 152.95 1.28 M128.63 28.86 C135.99 21.06, 142.76 13.01, 154.75 -0.58 M133.75 27.31 C142.1 20.83, 150.16 10.91, 158.11 -1.57 M134.33 29.22 C142.54 18.5, 152.48 6.76, 159.62 0.08 M137.95 30.21 C147.78 19.08, 153.91 9.74, 164.1 1.33 M138.54 28.89 C146.15 21.86, 152.27 13.13, 162.44 2.03 M145.24 28.99 C150.48 20.52, 157.26 12.84, 162.75 8.65 M144.95 27.95 C150.64 22.41, 155.61 15.9, 163.64 6.73 M148.91 27.93 C154.93 25.37, 154.78 21.76, 164.9 11.71 M150.77 28.53 C152.82 24.29, 156.13 20.74, 162.84 12.88 M154.19 28.96 C158.37 25.63, 159.96 22.33, 162.58 19.31 M154.74 29.11 C156.55 26.93, 158.12 24.7, 163.39 20.24 M160.51 28.34 C161.69 27.18, 162.59 26.22, 163.37 25.35 M160.82 28.55 C161.44 27.67, 161.98 26.91, 163.35 25.27" stroke="#d0bfff" stroke-width="0.5" fill="none"></path><path d="M1.49 0.6 C51.06 1.89, 98.58 -1.19, 162.03 -1.3 M-0.55 0.32 C45.35 -0.12, 91.18 1.34, 161.32 0.02 M162.62 -1.56 C163.28 6.72, 160.44 16.72, 161.63 25.97 M161.87 0.83 C161.81 8.06, 163.07 18.49, 162.37 26.62 M162.52 28.88 C98.65 28.97, 35.16 29.73, -0.01 28.52 M161.76 27.17 C102.57 27.75, 40.62 29.04, -0.69 26.96 M0.6 27.85 C1.71 18.69, -0.59 8.27, 1.02 -0.2 M0.6 28.42 C-0.5 18.41, -0.74 11.01, 0.59 0.54" stroke="#9c36b5" stroke-width="1" fill="none"></path></g><g transform="translate(1135.2222222222224 655) rotate(0 22.543983459472656 10)"><text x="0" y="0" font-family="Virgil, Segoe UI Emoji" font-size="16px" fill="#1e1e1e" text-anchor="start" style="white-space: pre;" direction="ltr" dominant-baseline="text-before-edge">Next </text></g><g stroke-linecap="round" transform="translate(933.5555555555557 395.55555555555566) rotate(0 80 15.555555555555543)"><path d="M-1.11 -0.7 C56.26 -2.8, 112.27 -1.62, 159.69 -1.67 M0.88 -0.89 C39.98 -0.9, 81.53 -1.07, 159.22 0.8 M159.74 -1.51 C158.24 8.36, 161.81 13.68, 159.4 32.82 M160.6 -0.49 C159.32 6.44, 159.26 13.75, 159.7 32.01 M160.11 31.16 C115.39 30.13, 72.12 31.1, -0.85 32.92 M161 31.15 C98.21 29.89, 34.02 30.63, -0.21 30.47 M0.56 30.29 C0.39 24.1, 0.55 12.34, -1.57 0.83 M-0.89 32.04 C0.82 22.07, -0.61 13.39, 0.78 0.92" stroke="#1e1e1e" stroke-width="1" fill="none"></path></g><g transform="translate(944.6666666666667 400.0000000000001) rotate(0 70.49596405029297 10)"><text x="0" y="0" font-family="Virgil, Segoe UI Emoji" font-size="16px" fill="#1e1e1e" text-anchor="start" style="white-space: pre;" direction="ltr" dominant-baseline="text-before-edge">Question [number]</text></g><g stroke-linecap="round"><g transform="translate(1540.2222222222222 431.1111111111112) rotate(0 -150.5894857461716 116.01235458986434)"><path d="M-0.94 -0.14 C-118.86 91.88, -235.78 181.73, -301.01 232.16 M-0.09 0.54 C-118.38 92.86, -238.08 184.16, -301.09 231.78" stroke="#e03131" stroke-width="1" fill="none"></path></g><g transform="translate(1540.2222222222222 431.1111111111112) rotate(0 -150.5894857461716 116.01235458986434)"><path d="M-286.42 206.33 C-292.05 217.96, -296.09 225.52, -300.93 231.69 M-285 207.46 C-290.33 217.46, -297.86 226.58, -301.04 231.05" stroke="#e03131" stroke-width="1" fill="none"></path></g><g transform="translate(1540.2222222222222 431.1111111111112) rotate(0 -150.5894857461716 116.01235458986434)"><path d="M-274.01 222.67 C-284.51 227.86, -293.42 228.99, -300.93 231.69 M-272.59 223.8 C-282.84 227.37, -295.27 230.03, -301.04 231.05" stroke="#e03131" stroke-width="1" fill="none"></path></g></g><mask></mask><g transform="translate(1562.4444444444446 385.55555555555566) rotate(0 135.30392456054676 40)"><text x="0" y="0" font-family="Virgil, Segoe UI Emoji" font-size="16px" fill="#e03131" text-anchor="start" style="white-space: pre;" direction="ltr" dominant-baseline="text-before-edge">This button will change to the </text><text x="0" y="20" font-family="Virgil, Segoe UI Emoji" font-size="16px" fill="#e03131" text-anchor="start" style="white-space: pre;" direction="ltr" dominant-baseline="text-before-edge">"Submit" button once all questions</text><text x="0" y="40" font-family="Virgil, Segoe UI Emoji" font-size="16px" fill="#e03131" text-anchor="start" style="white-space: pre;" direction="ltr" dominant-baseline="text-before-edge">have been answered. This will lead</text><text x="0" y="60" font-family="Virgil, Segoe UI Emoji" font-size="16px" fill="#e03131" text-anchor="start" style="white-space: pre;" direction="ltr" dominant-baseline="text-before-edge">them to the results page. </text></g><g stroke-linecap="round" transform="translate(231.33333333333337 917.7777777777778) rotate(0 121.11111111111114 19.444444444444457)"><path d="M0.07 -1.39 C48.95 0.06, 98.58 0.36, 241.7 0.41 M-0.35 0.19 C67.03 -1.6, 134.48 -1.48, 242.47 0.36 M241.22 -0.03 C242.57 13.36, 242.63 26.94, 241.57 40.27 M243.05 -0.41 C242.34 14.05, 241.86 28.66, 242.36 37.98 M240.73 38.05 C159.47 37.89, 76.12 36.28, 0.09 37.4 M242.64 38.28 C171.06 40, 98.84 40.52, -0.55 38.8 M0.58 39.43 C-1.77 26.82, 1.36 19.88, -0.59 -0.12 M-0.47 37.91 C0.51 24.56, -0.43 11.5, 0.42 -0.04" stroke="#343a40" stroke-width="1" fill="none"></path></g><g transform="translate(275.77777777777777 928.888888888889) rotate(0 69.89595031738284 10)"><text x="0" y="0" font-family="Virgil, Segoe UI Emoji" font-size="16px" fill="#343a40" text-anchor="start" style="white-space: pre;" direction="ltr" dominant-baseline="text-before-edge">&lt;h3&gt;Results&lt;/h3&gt;</text></g><g stroke-linecap="round" transform="translate(241.33333333333331 973.3333333333334) rotate(0 106.66666666666671 87.22222222222229)"><path d="M0.39 0.67 C56.27 0.45, 109.84 0.17, 212.36 -1.04 M-0.45 0.54 C75.93 0.97, 150.61 0.45, 212.96 -0.69 M213.87 0.15 C213.68 58.85, 214.81 121.21, 212.81 173.8 M213.61 0.79 C214.79 36.48, 215.87 74.02, 213.91 174.98 M211.65 173.61 C170.21 173.56, 124.66 175.1, 0.65 173.75 M212.79 173.89 C151.22 174.3, 89.66 175.09, -0.72 173.65 M-1.48 173.36 C-0.18 120.46, -0.08 64.81, -1.71 -0.45 M-0.41 174.73 C0.17 122.57, -0.1 72.48, 0.78 0.96" stroke="#e03131" stroke-width="1" fill="none"></path></g><g transform="translate(246.88888888888886 983.3333333333334) rotate(0 101.75193786621097 100)"><text x="0" y="0" font-family="Virgil, Segoe UI Emoji" font-size="16px" fill="#e03131" text-anchor="start" style="white-space: pre;" direction="ltr" dominant-baseline="text-before-edge">&lt;ul&gt;</text><text x="0" y="20" font-family="Virgil, Segoe UI Emoji" font-size="16px" fill="#e03131" text-anchor="start" style="white-space: pre;" direction="ltr" dominant-baseline="text-before-edge">&lt;li&gt; Users Score (correct</text><text x="0" y="40" font-family="Virgil, Segoe UI Emoji" font-size="16px" fill="#e03131" text-anchor="start" style="white-space: pre;" direction="ltr" dominant-baseline="text-before-edge">answers out of total&lt;/li&gt;</text><text x="0" y="60" font-family="Virgil, Segoe UI Emoji" font-size="16px" fill="#e03131" text-anchor="start" style="white-space: pre;" direction="ltr" dominant-baseline="text-before-edge"></text><text x="0" y="80" font-family="Virgil, Segoe UI Emoji" font-size="16px" fill="#e03131" text-anchor="start" style="white-space: pre;" direction="ltr" dominant-baseline="text-before-edge">&lt;li&gt; Ending Time &lt;/li&gt;</text><text x="0" y="100" font-family="Virgil, Segoe UI Emoji" font-size="16px" fill="#e03131" text-anchor="start" style="white-space: pre;" direction="ltr" dominant-baseline="text-before-edge"></text><text x="0" y="120" font-family="Virgil, Segoe UI Emoji" font-size="16px" fill="#e03131" text-anchor="start" style="white-space: pre;" direction="ltr" dominant-baseline="text-before-edge">&lt;li&gt; Player Rank &lt;/li&gt;</text><text x="0" y="140" font-family="Virgil, Segoe UI Emoji" font-size="16px" fill="#e03131" text-anchor="start" style="white-space: pre;" direction="ltr" dominant-baseline="text-before-edge">&lt;/ul&gt;</text><text x="0" y="160" font-family="Virgil, Segoe UI Emoji" font-size="16px" fill="#e03131" text-anchor="start" style="white-space: pre;" direction="ltr" dominant-baseline="text-before-edge"></text><text x="0" y="180" font-family="Virgil, Segoe UI Emoji" font-size="16px" fill="#e03131" text-anchor="start" style="white-space: pre;" direction="ltr" dominant-baseline="text-before-edge"></text></g><g stroke-linecap="round" transform="translate(223.55555555555554 1172.2222222222226) rotate(0 125.5555555555556 19.999999999999886)"><path d="M0 0 C0 0, 0 0, 0 0 M0 0 C0 0, 0 0, 0 0 M-0.22 6 C0.18 4.39, 2.16 2.93, 4.21 0.18 M-0.17 6.49 C0.84 4.76, 2.33 3.28, 4.85 0.4 M0.12 12.68 C4.37 9.51, 4.77 4.72, 11.03 0.42 M-0.13 12.16 C2.9 9.58, 5.32 6.85, 10.2 0.02 M-1.13 19.23 C5.5 13.01, 12.43 4.94, 16.04 0.52 M0.14 19.2 C5.08 12.66, 10.06 8.07, 16.25 0.99 M-1.27 24.74 C6.2 16.54, 10.75 11.19, 21.99 0.1 M0.07 24.83 C4.98 19.41, 10.1 13.81, 20.95 -0.76 M0.67 29.48 C9.37 17.96, 18.19 9.44, 26.91 -1.03 M0.49 30.2 C7.14 20.96, 15.39 12.88, 26.61 0.3 M-1.52 37.24 C7.77 29.57, 13.24 18.36, 31.71 1.34 M0.21 36.02 C11.42 24.15, 23.28 10.52, 31.98 -0.7 M2.12 39.32 C11.34 30.84, 20.26 20.93, 36.91 -0.98 M1.82 41.34 C14.47 27.22, 26.31 12.61, 36.48 -0.07 M5.62 41.89 C15.55 27.29, 30.27 16.02, 43.85 0.45 M7.29 40.8 C19.78 25.98, 34.44 10.37, 41.92 0.41 M11.78 40.76 C24.68 25.97, 38.98 9.09, 47.38 1.8 M11.18 40.34 C20.74 32.83, 27.82 22.79, 46.83 0.48 M15.33 40.49 C28.2 30.18, 37.95 16.68, 53.04 0.02 M17.44 42.13 C27.44 30.53, 34.98 21.26, 52.21 -0.68 M24.22 39.85 C31.45 31.18, 40.64 20.11, 57.77 -0.12 M23.27 41.06 C31.34 31.64, 38.66 23.71, 57.84 0.59 M28.26 42.99 C39.81 25.15, 53.21 11.36, 63.04 -0.95 M27.34 41.72 C35.23 31.59, 42.58 22.42, 64.02 0.32 M32.32 40.45 C44.48 29.34, 52.55 16.59, 67.61 -0.81 M33.67 40.35 C43.86 27.68, 56.32 13.5, 67.89 -0.05 M37.05 40.23 C48.62 31.97, 57.79 17.78, 72.66 -1.04 M37.81 41.83 C49.76 27.49, 61.72 13.83, 75.19 0.24 M44.03 40.85 C50.95 29.85, 60.8 22.33, 78.53 1.12 M44.68 41.62 C53.73 29.39, 62.95 19.24, 78.55 0.29 M48.46 42.44 C62.22 29.19, 72.71 15.96, 85.84 1.57 M48.85 40.76 C62.63 26.8, 76.73 10.48, 85.28 -0.54 M56.39 39.76 C63.43 30.11, 73.25 19.02, 88.25 0.43 M54.3 41.81 C61.97 31.09, 69.91 21.82, 89.62 0.4 M61.34 41.28 C70.8 27.37, 83.12 14.72, 97.59 -0.91 M58.7 41.85 C69.75 28.94, 81.14 16.21, 96.55 -1.07 M65.55 42.25 C72.64 29.76, 82.5 20.96, 100.59 -0.7 M65.21 40.42 C76.16 26.55, 89.01 11.95, 100.07 -0.89 M68.63 39.78 C82.84 26, 95.18 15.6, 108.03 0.16 M70.77 40.5 C78.96 33.13, 85.68 22.82, 106.96 -0.89 M76.1 42.61 C86.32 30.51, 95.68 18.37, 111.46 1.3 M75.17 41.24 C89.57 26.58, 103.25 9.64, 111.09 0.29 M79.37 42.42 C89.17 32.41, 97.97 20.7, 115.71 0.57 M80.69 41.14 C94.14 26.3, 107.76 12.08, 116.53 -0.2 M85.68 43.21 C97.38 30.75, 107.11 17.15, 122.86 1.43 M86.59 42.35 C96.97 27.85, 109.32 15.9, 121.09 -0.13 M92.67 41.05 C106.47 27.61, 120.78 8.86, 126.23 2.25 M91.29 40.27 C103.68 26.8, 116.47 11.73, 126.93 0.04 M95.05 41.15 C106.01 31.3, 116.18 19.11, 132.89 0.08 M95.63 41.64 C108.69 27.8, 120.9 13.58, 132.65 0.82 M103.77 40.94 C113.03 31.84, 121.46 19.69, 138.34 -0.21 M101.62 41.41 C115.72 26.13, 127.16 10.92, 136.58 -0.28 M108.74 43.13 C119.66 25.53, 134.38 8.6, 141.74 1.06 M107.78 40.79 C121.52 25.02, 134.54 9.61, 143.57 0.16 M113.98 42.77 C119.52 31.27, 130.27 22.01, 148.53 -0.53 M111.89 40.14 C122.79 30.34, 132.82 17.71, 148.26 -0.51 M116.35 40.29 C127.47 30.14, 135.34 20.57, 153.69 1.57 M118.27 41.02 C128.12 29.39, 136.96 18.77, 153.86 -0.06 M124.71 40.62 C132.19 32.39, 142.85 21.5, 160.37 1.93 M122.56 41.09 C131.39 31.82, 139.09 22.66, 159.44 0.58 M126.6 42.17 C142.94 25.74, 154.86 10.49, 163.12 -1.78 M129.01 42.13 C142.55 26.62, 155.74 9.14, 164.72 0.29 M135.47 39.98 C144.31 25.61, 157.32 11.88, 170.55 0.25 M133.26 40.94 C146.89 26.78, 159.74 10.4, 169.32 -0.26 M137.29 42.71 C149.14 28.16, 160.36 16.88, 176.51 1.04 M139.62 41.42 C150.24 27.77, 162.46 15.56, 175.56 0.35 M145.84 39.74 C154.27 30.23, 161.82 20.11, 178.82 1.89 M143.84 41.4 C157.81 26.94, 170.08 11.82, 179.76 0.28 M149.31 42.25 C158.41 28, 171.14 17.98, 186.42 -0.56 M150.42 40.76 C157.53 30.63, 167.14 21.08, 184.99 -0.65 M153.53 42.21 C166.37 30.59, 176.03 18.04, 190.06 -1.26 M155.35 40.25 C165.39 29, 175.52 18.71, 190.37 1.05 M160.64 41.55 C175.92 24.76, 190.21 7.53, 197.51 0.28 M159.44 41.57 C167.94 32.67, 175.21 24.98, 195.83 -0.49 M164.31 39.1 C173.41 30.66, 181.94 21.64, 200.22 1.08 M165.05 40.29 C175.62 30.67, 183.88 20.22, 201.43 -0.55 M172.37 39.77 C179.93 29.8, 189 21.91, 208.53 -2.23 M171.41 41.82 C185.8 25.25, 198.01 10.52, 206.09 -0.85 M178.06 41.51 C190.11 24.83, 205.08 9.17, 210.35 -0.39 M177.38 40.39 C186.75 28.99, 197.39 17.17, 212.93 0.43 M182.68 40.47 C188.81 32.42, 198.03 20.52, 218.33 -0.43 M180.76 41.01 C195.69 24.22, 208.94 8.55, 218 -0.39 M186.77 41.98 C195.04 34.04, 202.47 22.22, 220.59 -0.58 M187.01 40.45 C196.36 30.29, 204.14 20.14, 221.58 -0.51 M192.83 41.64 C204.52 27.22, 214.69 14.84, 227.86 0.74 M192.62 41.2 C201.2 30.27, 210.73 20.56, 228.98 0.28 M195.83 41.17 C208.75 29.04, 216.19 19.37, 232.19 -1.98 M197.14 41.19 C206.32 31.77, 215.03 20.5, 233.78 -0.35 M201.18 41.65 C211.21 31, 217.37 25.3, 237.48 -1.53 M201.83 42 C216.7 25.92, 230.52 9.79, 237.99 0.36 M208.71 42.91 C217.78 31.6, 225.39 19.67, 245.47 -0.69 M207.15 42.1 C214.47 32.27, 222.95 24.27, 244.62 0.52 M213.2 41.28 C221.95 28.59, 233.1 21.17, 247.65 -0.87 M213.94 41.54 C221.08 31.08, 228.63 23.74, 249.19 0.82 M217.03 40.7 C230.58 27.27, 240.95 13.56, 252.54 1.13 M217.65 40.97 C231.28 26.97, 245.9 9.75, 253.6 0.73 M223.43 41.73 C234.52 31.34, 243.01 19.88, 254.36 8.28 M224.18 41.54 C235.91 28.31, 247.11 15.28, 252.39 7.5 M229.12 40.67 C233.42 32.99, 239.7 25.32, 254.06 15.25 M228.12 41.91 C235.02 35.61, 239.67 28.19, 252.37 13.03 M233.51 42.59 C240.54 37.05, 244.36 34.13, 253.56 19.59 M234.51 40.23 C239.94 33.47, 245.62 28.02, 252.45 18.96 M239.42 40.39 C242.49 36.13, 246.26 32.62, 252.17 26.99 M239.21 41.06 C242.57 37.39, 247.43 33.37, 252.66 26.83 M245.83 40.31 C248.44 38.09, 251.08 34.3, 254.02 31.13 M244.86 41.23 C247.4 39.21, 248.57 37.11, 253.51 31.54 M-0.18 39.84 C-0.18 39.84, -0.18 39.84, -0.18 39.84 M-0.18 39.84 C-0.18 39.84, -0.18 39.84, -0.18 39.84 M5.97 39.72 C4.39 37.35, 2.21 36.17, 0.04 34.4 M6.54 40.29 C4.94 38.69, 3.9 37.83, 0.43 34.54 M13.45 40.5 C10.89 39.14, 6.84 35.55, 0.03 29.02 M11.15 39.3 C7.75 35.62, 3.94 33.62, -0.68 28.76 M19.47 40.82 C9.97 33.7, 4.1 27.04, -1.02 23.36 M18.75 39.17 C12.99 36.03, 7.15 29.86, -0.47 24.56 M26.54 41.58 C16.13 35.71, 9.91 28.13, 1.02 16.73 M25.22 39.86 C19.41 35.26, 13.98 30.1, -0.18 19.09 M30.71 41.35 C19.29 30.21, 6.96 20.97, 0.73 15.39 M29.37 38.91 C21.5 31.85, 10.76 23.52, 0.03 14.08 M35.39 41.8 C22.11 29.25, 10.24 17.91, 0.58 9.93 M36.07 39.1 C29.81 32.41, 20.66 26.28, 0.51 8.66 M42.43 38.38 C29.18 28.76, 15.87 15.75, -1.1 1.52 M41.36 39.77 C27.8 27.26, 12.04 12.13, -0.44 3.46 M48.06 38.62 C28.57 25.68, 12.32 8.32, 1.36 -2.95 M47.98 38.97 C37.51 31.01, 27.57 22.05, 1.49 -1.36 M53.59 40.6 C37.8 22.76, 20.13 8.75, 8.9 -0.57 M54.64 40.92 C41.86 27.65, 29.18 17.03, 8.12 -1.89 M61.57 40.01 C52.2 32.74, 37.89 22.51, 14.59 -2.46 M59.83 38.89 C44.67 27.49, 29.61 12.45, 12.27 -1.61 M65.99 39.15 C50.26 26.37, 31.65 10.34, 19.68 -0.99 M66.57 39.13 C51.33 26.92, 34.08 12.18, 19.35 -0.68 M73 39.39 C63.99 32.96, 52.65 21.6, 26.98 0.17 M72.72 39.32 C61.28 30.33, 50.35 20.36, 25.4 -1.19 M78.78 41.52 C63.44 27.99, 52 14.54, 32.8 0.26 M79.48 39.68 C68.28 30.81, 59.03 22.64, 32.58 -0.9 M86.3 42.19 C71.81 26.95, 55.84 12.93, 37.64 -0.02 M85.71 39.44 C69.64 26.8, 55.83 14.7, 38.48 -1.87 M91.44 38.97 C73.84 27.69, 59.38 10.5, 42.39 0.49 M90.65 40.72 C73.24 23.21, 55.62 8.46, 43.87 -1.54 M99.24 41.33 C82.29 26.88, 69.41 15.9, 50.52 0.45 M97.78 39.51 C81.14 23.62, 63.01 8.99, 49.54 -0.79 M102.55 41.16 C90.16 30.49, 83.21 19, 56.73 -3.54 M104.04 38.98 C88.17 25.43, 74.04 12.83, 56.5 -1.55 M109.97 39.06 C90.35 23.1, 74.22 7.62, 60.93 -0.58 M109.4 39.78 C96 28.37, 82.17 15.74, 62.59 -1.6 M116.54 38.81 C102.36 28.27, 86.44 17.22, 68.9 -1.03 M116.11 39.36 C101.42 27.49, 85.72 12.84, 68.69 -0.18 M119.94 38.41 C107.19 23.85, 88.83 11.87, 74.5 -3.5 M122.48 38.92 C103.98 24.28, 85.4 8.93, 73.56 -2.06 M126.68 39.09 C118.19 31.25, 106.36 23.6, 79.85 0.24 M127.72 39.36 C113.61 29.14, 101.08 18.18, 79.61 -0.61 M132.74 37.8 C122.7 29.83, 110.66 16.72, 85.99 -0.32 M134.13 39.64 C123.05 29.46, 109.59 18.62, 86.12 -2.39 M141.58 39.53 C127.34 29.84, 114.48 18.29, 92.86 -0.1 M139.72 39.99 C125.47 28.95, 112 15.37, 92.88 -0.98 M144.76 41.73 C131.2 27.41, 114.44 11.85, 97.96 0.04 M146.41 40.33 C131.47 28.29, 117.1 16.37, 99.36 -1.57 M152.19 39.41 C138.95 28.66, 124.8 18.31, 104.56 0.32 M152.89 40.15 C141.51 29.19, 129.33 19.25, 104.58 -2.06 M160.27 40.12 C143.96 27.27, 130.06 12.17, 111.85 -0.92 M158.34 39.49 C145.59 28.31, 132.98 18.2, 111.84 -1.06 M162.57 38.43 C152.85 32.24, 145.29 22.65, 115.66 -2.75 M163.74 40.29 C151.25 29.01, 138.3 17.51, 117.01 -1.57 M169.84 38.26 C161.37 29.83, 147.91 22.01, 122.42 -1.33 M171.39 40.62 C160.17 31, 146.96 19.79, 123.07 -1.74 M176.62 39.34 C165.29 26.87, 150.87 17.94, 129.75 -1.46 M176.21 40.06 C165.18 30.57, 154.27 19.49, 130.4 -0.52 M181.44 40.22 C172.24 30.45, 160.45 20.74, 136.78 0.45 M183.49 40.61 C168.95 28.58, 155.74 16.01, 135.51 -1.66 M189.06 39.34 C171.99 25.13, 150.23 7.67, 140.23 -0.55 M189.7 40.68 C175.32 26.08, 159.55 14.56, 140.92 -0.84 M195.09 39.45 C184.75 30.98, 171.44 18.7, 149.14 -3.54 M194.76 39.4 C176.51 24.69, 158.17 7.47, 146.34 -2.28 M199.98 39.98 C187.95 29.31, 172.87 15.45, 152.84 -3.38 M200.57 39.9 C182.54 24.81, 166.44 9.8, 154.24 -0.47 M205.68 41.47 C195.37 32.56, 186.59 21.62, 159.57 -0.22 M207.29 39.64 C192.2 27.43, 177.4 13.93, 159.16 -0.87 M213.81 38.6 C204.75 30.34, 193.16 23.03, 164.69 -0.54 M214.12 40.36 C195.11 23.88, 177.54 10.37, 165.45 -0.92 M217.92 39.24 C203.49 25.23, 187.42 12.11, 172.93 -0.04 M219.1 41.03 C200.62 24.56, 182.59 8.33, 172.06 -2.12 M226.07 38.9 C215.02 28.76, 204.02 20.22, 178.97 -3.23 M224.36 39.23 C215.5 32.19, 205.33 23.56, 176.83 -1.68 M232.87 39.08 C221.98 30.58, 211.12 21.19, 185.48 -3.09 M231.68 39.33 C218.52 29.86, 207.58 18.85, 185.05 -1.23 M238.11 41.68 C221.15 25.78, 200.96 7.76, 191.72 -0.6 M237.75 39.9 C225.76 30.21, 213.7 17.96, 189.66 -0.53 M242.96 40.09 C230.09 28.56, 217.64 17.42, 195.8 0.29 M243.97 40.65 C226.2 23.19, 209.03 9.02, 196.12 -1.47 M248.15 40.16 C238.66 30.74, 227.66 21.22, 202.81 -0.34 M249.22 40.33 C240.73 31.97, 229.58 22.9, 202.13 -1.16 M252.41 38.78 C239.13 26.2, 225.9 13.98, 207.55 0.16 M253.86 37.2 C240.59 27.08, 226.95 15.09, 208.94 -2.58 M252.67 30.07 C240.88 21.3, 225.89 8.14, 214.46 -2.77 M252.57 32.13 C242.67 23.59, 233.4 15.47, 214.89 -2.28 M252.28 28.48 C247.87 22.5, 237.2 12.66, 220.27 -2.35 M254.13 27.64 C241.36 17.78, 230.12 6.71, 220.66 -1.1 M253.62 21.99 C247.62 14.77, 240.78 9.31, 226.24 -1.47 M252.66 21.92 C244.93 14.44, 237.06 8.16, 227.07 -1.17 M253.08 17.04 C246.06 12.95, 240.88 5.95, 232.31 0.34 M254.16 15.76 C248.77 11.65, 243.5 7.34, 233.86 -1.99 M251.09 12.24 C248.44 8.96, 243.36 4, 237.85 -0.66 M253.04 11.21 C247.72 7.35, 243.59 2.73, 238.01 -2.05 M252.36 5.44 C250 2.42, 247.23 0.73, 244.12 -0.54 M253.53 5.86 C250.94 3.74, 249.75 2.49, 244.51 -1.56" stroke="#868e96" stroke-width="0.5" fill="none"></path><path d="M-0.89 1.02 C73.6 0.24, 147.66 2.11, 252.67 -0.04 M0.31 0.59 C92.61 -1.98, 183.08 -2, 251.02 0.57 M252.83 0.18 C250.88 11.31, 253.05 20.84, 249.53 39.92 M250.41 -0.57 C251.38 10.11, 250.87 22.1, 250.99 40.32 M250.58 40.98 C154.67 38.63, 57.04 38, 1.56 41.33 M250.42 39.29 C180.63 38.85, 111 39.25, 0.04 40.07 M-0.53 39.43 C-1.11 26.16, -1.61 13.42, -1.58 0.44 M-0.4 39.51 C-0.07 31.87, -0.18 23.1, -0.14 0.8" stroke="#1e1e1e" stroke-width="1" fill="none"></path></g><g transform="translate(228.00000000000006 1185.5555555555552) rotate(0 119.49703979492185 9.915461753784712)"><text x="0" y="0" font-family="Virgil, Segoe UI Emoji" font-size="15.864738806055602px" fill="#1e1e1e" text-anchor="start" style="white-space: pre;" direction="ltr" dominant-baseline="text-before-edge">&lt;input&gt; Users Initials &lt;/input&gt;</text></g><g transform="translate(285.77777777777766 1227.7777777777778) rotate(0 58.46395874023435 10)"><text x="0" y="0" font-family="Virgil, Segoe UI Emoji" font-size="16px" fill="#1e1e1e" text-anchor="start" style="white-space: pre;" direction="ltr" dominant-baseline="text-before-edge">Submit Results</text></g><g stroke-linecap="round"><g transform="translate(792.4444444444446 993.3333333333335) rotate(0 -177.05013664152938 128.9529260033109)"><path d="M-0.38 0.37 C-83.22 61.51, -167.62 122.56, -353.89 257.37 M-0.21 -0.21 C-94.19 70.06, -189.12 139.86, -353.17 258.11" stroke="#e03131" stroke-width="1" fill="none"></path></g><g transform="translate(792.4444444444446 993.3333333333335) rotate(0 -177.05013664152938 128.9529260033109)"><path d="M-337.11 234.01 C-339.58 240.58, -344.13 245.84, -354.28 257.31 M-336.77 232.86 C-340.56 239.13, -345.89 247.45, -352.86 258.78" stroke="#e03131" stroke-width="1" fill="none"></path></g><g transform="translate(792.4444444444446 993.3333333333335) rotate(0 -177.05013664152938 128.9529260033109)"><path d="M-325.08 250.64 C-330.49 253.2, -337.9 254.51, -354.28 257.31 M-324.73 249.49 C-331.77 251.41, -340.32 255.29, -352.86 258.78" stroke="#e03131" stroke-width="1" fill="none"></path></g></g><mask></mask><g transform="translate(774.666666666667 907.7777777777778) rotate(0 158.119873046875 30)"><text x="0" y="0" font-family="Virgil, Segoe UI Emoji" font-size="16px" fill="#e03131" text-anchor="start" style="white-space: pre;" direction="ltr" dominant-baseline="text-before-edge">Once user submits their results, a </text><text x="0" y="20" font-family="Virgil, Segoe UI Emoji" font-size="16px" fill="#e03131" text-anchor="start" style="white-space: pre;" direction="ltr" dominant-baseline="text-before-edge">pop-up box will display the three highest</text><text x="0" y="40" font-family="Virgil, Segoe UI Emoji" font-size="16px" fill="#e03131" text-anchor="start" style="white-space: pre;" direction="ltr" dominant-baseline="text-before-edge">scores from previous users.</text></g><g transform="translate(1044.6666666666667 1036.6666666666667) rotate(0 224.37588500976562 40)"><text x="0" y="0" font-family="Virgil, Segoe UI Emoji" font-size="16px" fill="#2f9e44" text-anchor="start" style="white-space: pre;" direction="ltr" dominant-baseline="text-before-edge">Tablet and phone layouts will remain the same with the </text><text x="0" y="20" font-family="Virgil, Segoe UI Emoji" font-size="16px" fill="#2f9e44" text-anchor="start" style="white-space: pre;" direction="ltr" dominant-baseline="text-before-edge">only exception being the size of the boxes. However, </text><text x="0" y="40" font-family="Virgil, Segoe UI Emoji" font-size="16px" fill="#2f9e44" text-anchor="start" style="white-space: pre;" direction="ltr" dominant-baseline="text-before-edge">design will be responsive in order to remain accessible</text><text x="0" y="60" font-family="Virgil, Segoe UI Emoji" font-size="16px" fill="#2f9e44" text-anchor="start" style="white-space: pre;" direction="ltr" dominant-baseline="text-before-edge">on various devices. </text></g><g transform="translate(345.7777777777776 10) rotate(0 394.48638916015625 40.555555555555536)"><text x="0" y="0" font-family="Virgil, Segoe UI Emoji" font-size="32.44444444444443px" fill="#2f9e44" text-anchor="start" style="white-space: pre;" direction="ltr" dominant-baseline="text-before-edge">Horror Movie themed quiz built using JavaScript. </text><text x="0" y="40.555555555555536" font-family="Virgil, Segoe UI Emoji" font-size="32.44444444444443px" fill="#2f9e44" text-anchor="start" style="white-space: pre;" direction="ltr" dominant-baseline="text-before-edge">Featuring a countdown timer and high scores.</text></g><g transform="translate(285.77777777777777 1266.6666666666665) rotate(0 56.8239669799805 10)"><text x="0" y="0" font-family="Virgil, Segoe UI Emoji" font-size="16px" fill="#1e1e1e" text-anchor="start" style="white-space: pre;" direction="ltr" dominant-baseline="text-before-edge">View Questions</text></g><g stroke-linecap="round"><g transform="translate(945.7777777777778 1364.4444444444443) rotate(0 -252.91501337045605 -38.75833384868588)"><path d="M-0.48 0.5 C-107.86 -18.41, -214.32 -34.25, -504.93 -77.33 M-0.04 0.04 C-133.34 -19.76, -266.08 -39.58, -505.79 -78.02" stroke="#e03131" stroke-width="1" fill="none"></path></g><g transform="translate(945.7777777777778 1364.4444444444443) rotate(0 -252.91501337045605 -38.75833384868588)"><path d="M-477.54 -82.49 C-483.59 -84.05, -488.16 -81.23, -504.23 -76.9 M-476.44 -83.64 C-484.39 -82.87, -491.23 -79.71, -506.38 -78.62" stroke="#e03131" stroke-width="1" fill="none"></path></g><g transform="translate(945.7777777777778 1364.4444444444443) rotate(0 -252.91501337045605 -38.75833384868588)"><path d="M-480.75 -62.22 C-486.32 -68.05, -490.21 -69.53, -504.23 -76.9 M-479.65 -63.37 C-486.83 -67.95, -492.82 -70.13, -506.38 -78.62" stroke="#e03131" stroke-width="1" fill="none"></path></g></g><mask></mask><g transform="translate(925.7777777777778 1252.2222222222222) rotate(0 136.31192016601562 30)"><text x="0" y="0" font-family="Virgil, Segoe UI Emoji" font-size="16px" fill="#e03131" text-anchor="start" style="white-space: pre;" direction="ltr" dominant-baseline="text-before-edge">'View Questions' will allow the user</text><text x="0" y="20" font-family="Virgil, Segoe UI Emoji" font-size="16px" fill="#e03131" text-anchor="start" style="white-space: pre;" direction="ltr" dominant-baseline="text-before-edge">to see which questions they got </text><text x="0" y="40" font-family="Virgil, Segoe UI Emoji" font-size="16px" fill="#e03131" text-anchor="start" style="white-space: pre;" direction="ltr" dominant-baseline="text-before-edge">right/wrong.</text></g><g transform="translate(308 289.9999999999998) rotate(0 25.199981689453125 10)"><text x="0" y="0" font-family="Virgil, Segoe UI Emoji" font-size="16px" fill="#1e1e1e" text-anchor="start" style="white-space: pre;" direction="ltr" dominant-baseline="text-before-edge">[title]</text></g><g transform="translate(340.2222222222223 733.3333333333331) rotate(0 25.79198455810547 10)"><text x="0" y="0" font-family="Virgil, Segoe UI Emoji" font-size="16px" fill="#1e1e1e" text-anchor="start" style="white-space: pre;" direction="ltr" dominant-baseline="text-before-edge">Footer</text></g><g transform="translate(300.2222222222223 1302.2222222222222) rotate(0 25.79198455810547 10)"><text x="0" y="0" font-family="Virgil, Segoe UI Emoji" font-size="16px" fill="#1e1e1e" text-anchor="start" style="white-space: pre;" direction="ltr" dominant-baseline="text-before-edge">Footer</text></g><g transform="translate(1121.333333333333 731.1111111111109) rotate(0 25.79198455810547 10)"><text x="0" y="0" font-family="Virgil, Segoe UI Emoji" font-size="16px" fill="#1e1e1e" text-anchor="start" style="white-space: pre;" direction="ltr" dominant-baseline="text-before-edge">Footer</text></g></svg>